<svg xmlns="http://www.w3.org/2000/svg" viewBox="0 0 32 32" width="32" height="32">
  <defs>
    <linearGradient id="networkGradient" x1="0%" y1="0%" x2="100%" y2="100%">
      <stop offset="0%" style="stop-color:#00d4ff;stop-opacity:1" />
      <stop offset="50%" style="stop-color:#0099cc;stop-opacity:1" />
      <stop offset="100%" style="stop-color:#006699;stop-opacity:1" />
    </linearGradient>
    <linearGradient id="arrowGradient" x1="0%" y1="0%" x2="100%" y2="100%">
      <stop offset="0%" style="stop-color:#ff6b00;stop-opacity:1" />
      <stop offset="100%" style="stop-color:#cc5500;stop-opacity:1" />
    </linearGradient>
  </defs>
  
  <!-- Background circle -->
  <circle cx="16" cy="16" r="15" fill="#1a1a1a" stroke="url(#networkGradient)" stroke-width="2"/>
  
  <!-- Network nodes -->
  <circle cx="8" cy="8" r="2.5" fill="url(#networkGradient)"/>
  <circle cx="24" cy="8" r="2.5" fill="url(#networkGradient)"/>
  <circle cx="8" cy="24" r="2.5" fill="url(#networkGradient)"/>
  <circle cx="24" cy="24" r="2.5" fill="url(#networkGradient)"/>
  
  <!-- Central router/gateway -->
  <rect x="12" y="12" width="8" height="8" rx="2" fill="url(#networkGradient)"/>
  <rect x="13.5" y="13.5" width="5" height="5" rx="1" fill="#1a1a1a"/>
  
  <!-- Connection lines -->
  <line x1="8" y1="8" x2="12" y2="12" stroke="url(#networkGradient)" stroke-width="1.5" opacity="0.7"/>
  <line x1="24" y1="8" x2="20" y2="12" stroke="url(#networkGradient)" stroke-width="1.5" opacity="0.7"/>
  <line x1="8" y1="24" x2="12" y2="20" stroke="url(#networkGradient)" stroke-width="1.5" opacity="0.7"/>
  <line x1="24" y1="24" x2="20" y2="20" stroke="url(#networkGradient)" stroke-width="1.5" opacity="0.7"/>
  
  <!-- NAT/Forwarding arrow -->
  <path d="M 6 16 L 14 16 M 11 13 L 14 16 L 11 19" stroke="url(#arrowGradient)" stroke-width="2" fill="none" stroke-linecap="round" stroke-linejoin="round"/>
  <path d="M 18 16 L 26 16 M 23 13 L 26 16 L 23 19" stroke="url(#arrowGradient)" stroke-width="2" fill="none" stroke-linecap="round" stroke-linejoin="round"/>
  
  <!-- Small indicator dots for ports -->
  <circle cx="16" cy="10" r="1" fill="#ff6b00" opacity="0.8"/>
  <circle cx="16" cy="22" r="1" fill="#ff6b00" opacity="0.8"/>
</svg>